<?xml version="1.0" standalone="no"?>
<!DOCTYPE svg PUBLIC "-//W3C//DTD SVG 20010904//EN"
 "http://www.w3.org/TR/2001/REC-SVG-20010904/DTD/svg10.dtd">
<svg version="1.0" xmlns="http://www.w3.org/2000/svg"
 width="264.000000pt" height="264.000000pt" viewBox="0 0 264.000000 264.000000"
 preserveAspectRatio="xMidYMid meet">
<metadata>
Created by potrace 1.11, written by Peter Selinger 2001-2013
</metadata>
<g transform="translate(0.000000,264.000000) scale(0.100000,-0.100000)"
fill="#000000" stroke="none">
<path d="M885 2630 c-44 -4 -116 -10 -160 -14 -132 -12 -242 -46 -273 -85 -26
-34 -41 -70 -48 -117 -4 -35 -14 -57 -33 -75 -32 -30 -44 -60 -78 -196 -9 -38
6 -86 36 -121 17 -18 33 -33 38 -34 13 -1 38 -22 39 -33 1 -5 5 -39 8 -75 3
-36 13 -129 22 -207 11 -103 13 -147 5 -162 -15 -27 -13 -141 4 -301 9 -74 18
-162 21 -195 3 -33 16 -83 29 -110 28 -58 29 -64 50 -275 9 -85 18 -166 20
-180 2 -14 9 -83 15 -155 6 -72 16 -145 22 -163 12 -39 64 -102 84 -102 8 0
14 -4 14 -10 0 -5 130 -10 333 -10 182 -1 457 -4 610 -6 266 -3 279 -3 317 17
63 33 86 83 100 219 6 63 13 126 15 140 2 14 6 52 10 85 3 33 8 71 10 85 2 14
6 57 10 95 17 179 26 234 36 241 12 7 39 61 45 87 2 12 11 76 19 142 37 290
41 391 20 441 -11 27 -15 54 -11 89 4 28 9 73 12 100 3 28 7 64 8 80 2 17 7
60 11 98 4 37 11 67 15 67 5 0 22 12 40 26 55 47 70 114 42 184 -5 14 -15 43
-22 65 -7 22 -23 56 -35 75 -13 19 -26 55 -29 79 -8 54 -30 97 -64 127 -33 28
-143 56 -272 70 -30 3 -71 7 -90 9 -70 9 -867 13 -945 5z"/>
</g>
</svg>
