<svg id="svg" version="1.1" xmlns="http://www.w3.org/2000/svg" xmlns:xlink="http://www.w3.org/1999/xlink" width="142" height="30" viewBox="0, 0, 400,80.24502297090352"><g id="svgg"><path id="path0" d="M354.167 0.107 C 353.846 0.137,352.233 0.283,350.583 0.431 C 347.726 0.687,346.638 0.891,344.157 1.632 C 342.604 2.096,342.064 2.415,341.482 3.214 C 340.626 4.390,340.466 4.832,340.337 6.390 L 340.213 7.889 339.284 8.736 C 338.159 9.763,337.858 10.338,337.734 11.704 C 337.676 12.343,337.474 13.065,337.215 13.561 C 335.960 15.964,336.967 18.693,339.525 19.825 L 340.282 20.159 340.569 22.705 C 340.727 24.105,340.997 26.488,341.168 28.000 C 341.652 32.274,341.690 33.363,341.388 34.371 C 340.563 37.135,342.082 51.966,343.337 53.395 C 343.843 53.972,344.608 59.312,345.191 66.333 C 346.019 76.317,346.408 77.992,348.176 79.193 C 349.640 80.187,349.208 80.167,369.244 80.167 L 387.598 80.167 388.506 79.624 C 389.570 78.988,390.500 77.624,390.500 76.700 C 390.500 76.389,390.911 72.696,391.414 68.493 C 391.917 64.290,392.405 59.832,392.500 58.586 C 392.813 54.460,392.934 53.889,393.654 53.139 C 394.406 52.358,394.558 51.903,394.989 49.167 C 396.332 40.637,396.684 33.369,395.808 32.256 L 395.471 31.828 395.816 28.622 C 396.005 26.859,396.287 24.154,396.441 22.610 C 396.717 19.855,396.729 19.801,397.153 19.642 C 399.688 18.688,400.793 15.746,399.599 13.129 C 399.379 12.645,399.108 11.838,398.996 11.333 C 398.772 10.319,397.979 8.787,397.505 8.455 C 397.278 8.297,397.135 7.809,396.950 6.566 C 396.074 0.659,393.221 0.058,366.083 0.053 C 359.850 0.052,354.488 0.076,354.167 0.107 M392.995 15.125 C 392.992 15.285,392.917 15.979,392.827 16.667 C 392.738 17.354,392.473 19.817,392.240 22.141 C 391.569 28.802,391.214 31.534,391.002 31.666 C 390.445 32.010,389.407 32.138,377.917 33.281 C 374.416 33.629,362.365 33.618,355.583 33.259 C 352.925 33.119,349.887 32.962,348.833 32.910 C 347.779 32.859,346.685 32.782,346.402 32.739 L 345.888 32.662 345.687 30.539 C 345.471 28.262,344.229 16.716,344.074 15.542 L 343.980 14.833 368.490 14.833 C 391.724 14.833,393.000 14.849,392.995 15.125 M128.417 15.194 C 126.736 16.124,126.667 16.426,126.667 22.856 L 126.667 28.391 126.289 28.037 C 125.389 27.191,125.155 27.167,118.034 27.167 C 111.463 27.167,111.382 27.171,110.645 27.544 L 109.900 27.921 109.075 27.588 C 107.741 27.050,101.653 27.090,99.667 27.650 C 96.733 28.476,94.456 30.133,93.042 32.468 L 92.708 33.019 92.638 31.031 C 92.555 28.704,92.425 28.417,91.122 27.670 L 90.250 27.170 83.628 27.168 C 76.988 27.167,75.667 27.276,75.667 27.826 C 75.667 27.893,75.235 27.791,74.708 27.599 C 73.197 27.048,67.194 27.081,65.167 27.651 C 62.111 28.509,59.149 30.783,58.492 32.775 L 58.290 33.386 57.899 32.735 C 56.284 30.047,54.126 28.543,50.583 27.634 C 49.122 27.260,48.882 27.250,41.333 27.250 C 32.042 27.250,30.366 27.521,27.876 29.422 L 27.102 30.013 26.919 29.290 C 26.450 27.443,25.396 26.833,22.671 26.833 C 20.624 26.833,19.498 27.027,18.185 27.606 L 17.287 28.002 16.422 27.579 L 15.557 27.156 8.820 27.203 L 2.083 27.250 1.292 27.800 C -0.120 28.780,-0.011 26.992,0.039 48.318 C 0.083 67.204,0.085 67.312,0.427 67.769 C 1.327 68.974,0.874 68.912,9.084 68.963 L 16.477 69.010 17.082 68.479 C 18.401 67.321,18.333 67.997,18.337 55.965 C 18.341 45.730,18.403 44.197,18.829 43.771 C 18.942 43.658,19.870 43.560,21.168 43.525 L 23.319 43.467 23.368 51.858 L 23.417 60.250 23.852 61.417 C 25.310 65.321,27.734 67.519,31.831 68.655 C 33.683 69.168,48.716 69.187,50.702 68.679 C 54.244 67.773,57.657 65.014,58.416 62.442 L 58.616 61.764 59.061 62.436 C 59.305 62.806,59.737 63.279,60.020 63.488 L 60.534 63.868 59.912 64.381 C 58.725 65.359,58.674 65.635,58.674 71.083 C 58.674 76.467,58.731 76.797,59.822 77.715 C 60.604 78.373,60.153 78.352,72.250 78.299 L 83.417 78.250 84.672 77.805 C 90.332 75.799,92.428 72.778,92.622 66.350 L 92.719 63.117 93.092 63.850 C 94.096 65.822,96.735 67.780,99.559 68.648 C 101.058 69.110,107.799 69.178,109.075 68.744 C 109.752 68.515,109.878 68.515,110.322 68.744 C 110.744 68.963,111.872 69.000,118.033 68.999 C 126.112 68.999,125.907 69.028,126.571 67.795 L 126.890 67.202 127.241 67.722 C 127.434 68.008,127.844 68.413,128.154 68.621 L 128.716 69.000 135.866 69.000 C 143.531 69.000,143.487 69.005,144.272 68.141 C 145.022 67.317,145.166 66.778,145.170 64.800 L 145.174 62.917 145.477 63.583 C 146.388 65.586,148.821 67.512,151.710 68.517 C 153.361 69.092,159.940 69.253,161.582 68.759 C 162.282 68.548,162.443 68.548,162.850 68.759 C 163.236 68.958,164.563 69.000,170.550 69.000 L 177.784 69.000 178.350 68.622 C 178.662 68.414,179.022 68.007,179.150 67.718 L 179.383 67.191 179.737 67.717 C 179.932 68.006,180.344 68.413,180.654 68.621 L 181.216 69.000 188.524 69.000 L 195.832 69.000 196.458 68.435 L 197.083 67.871 197.736 68.435 L 198.389 69.000 205.667 69.000 L 212.944 69.000 213.597 68.435 L 214.250 67.871 214.875 68.435 L 215.501 69.000 222.809 69.000 L 230.117 69.000 230.680 68.621 C 231.803 67.864,232.000 67.351,232.000 65.184 L 232.000 63.250 232.337 63.930 C 233.258 65.791,236.435 67.954,239.320 68.683 C 241.357 69.198,257.250 69.097,258.667 68.560 C 265.383 66.014,266.947 62.881,266.563 52.750 C 266.557 52.567,266.558 48.854,266.567 44.500 C 266.588 34.299,266.396 33.426,263.485 30.515 C 262.071 29.100,260.746 28.399,258.167 27.701 C 256.109 27.143,243.449 26.928,240.696 27.403 C 236.435 28.138,233.386 30.122,231.937 33.102 L 231.379 34.250 230.754 33.000 C 229.736 30.966,228.296 29.499,226.333 28.498 C 222.327 26.452,213.365 26.846,211.389 29.153 C 210.999 29.610,210.820 29.592,209.963 29.014 C 207.487 27.343,200.191 26.528,197.333 27.604 L 196.417 27.948 195.945 27.599 C 195.231 27.071,182.050 26.964,181.045 27.478 C 180.301 27.858,179.500 28.570,179.500 28.850 C 179.500 28.960,179.331 28.794,179.124 28.483 C 178.266 27.192,178.099 27.167,170.576 27.167 C 163.908 27.167,163.888 27.168,163.124 27.554 C 162.467 27.887,162.304 27.912,161.971 27.731 C 160.617 26.996,154.519 26.980,152.000 27.706 C 149.058 28.553,146.487 30.523,145.509 32.679 L 145.174 33.417 145.170 25.367 C 145.165 14.013,146.048 14.998,135.883 15.005 C 130.992 15.009,128.645 15.068,128.417 15.194 M142.126 42.042 L 142.168 66.167 136.001 66.167 L 129.833 66.167 129.833 41.998 L 129.833 17.829 135.958 17.873 L 142.083 17.917 142.126 42.042 M270.702 43.458 L 270.750 58.750 271.213 60.115 C 272.418 63.676,275.108 65.338,280.083 65.600 C 284.673 65.840,287.089 64.819,288.345 62.106 L 288.818 61.083 288.826 63.377 L 288.833 65.671 295.042 65.627 L 301.250 65.583 301.250 46.917 L 301.250 28.250 294.965 28.206 L 288.680 28.163 288.632 41.547 C 288.578 56.503,288.655 55.576,287.409 56.097 C 286.735 56.379,285.093 56.407,284.353 56.149 C 283.292 55.779,283.333 56.371,283.333 41.592 L 283.333 28.167 276.993 28.167 L 270.654 28.167 270.702 43.458 M307.374 46.873 L 307.417 65.583 313.708 65.627 L 320.000 65.671 320.000 52.402 C 320.000 36.436,319.781 37.573,322.852 37.591 C 325.512 37.607,325.333 36.545,325.333 52.346 L 325.333 65.671 331.625 65.627 L 337.917 65.583 337.917 50.583 C 337.917 34.262,337.942 34.743,336.962 32.716 C 335.644 29.991,333.285 28.657,329.190 28.320 C 324.421 27.928,321.647 28.931,320.436 31.488 L 319.917 32.583 319.833 30.417 L 319.750 28.250 313.541 28.206 L 307.332 28.163 307.374 46.873 M23.961 35.208 L 23.917 40.583 20.917 40.668 C 15.177 40.831,15.333 40.421,15.333 55.280 L 15.333 66.167 9.167 66.167 L 3.000 66.167 3.000 48.167 L 3.000 30.167 9.083 30.167 L 15.167 30.167 15.175 32.542 L 15.184 34.917 15.522 34.037 C 16.505 31.479,19.245 29.882,22.711 29.847 L 24.005 29.833 23.961 35.208 M50.073 30.568 C 52.301 31.225,53.948 32.326,54.961 33.834 C 56.246 35.748,56.233 35.646,56.294 44.042 L 56.349 51.500 47.175 51.500 L 38.000 51.500 38.000 54.011 C 38.000 57.520,38.133 57.667,41.303 57.667 C 44.236 57.667,44.667 57.326,44.667 55.005 L 44.667 53.833 50.500 53.833 L 56.333 53.833 56.333 56.325 C 56.333 62.024,54.572 64.545,49.720 65.791 C 47.769 66.293,34.410 66.226,32.617 65.707 C 29.121 64.694,27.220 62.827,26.597 59.799 C 26.215 57.939,26.203 42.243,26.583 41.167 C 26.764 40.654,26.834 39.739,26.835 37.854 C 26.838 33.404,29.118 31.021,34.083 30.280 C 35.670 30.044,49.115 30.286,50.073 30.568 M74.220 30.577 C 75.244 30.954,76.905 32.473,77.198 33.300 C 77.408 33.892,77.420 33.843,77.500 32.083 L 77.583 30.250 83.625 30.206 L 89.667 30.163 89.667 49.182 C 89.667 70.155,89.713 69.168,88.622 71.222 C 87.911 72.561,86.427 73.872,85.020 74.406 C 82.385 75.405,82.595 75.388,71.792 75.456 L 61.833 75.519 61.833 71.093 L 61.833 66.667 69.071 66.667 L 76.308 66.667 76.821 66.235 L 77.333 65.804 77.333 63.216 L 77.333 60.629 76.792 61.434 C 75.468 63.400,74.072 63.917,70.083 63.916 C 64.166 63.915,61.343 62.106,60.414 57.722 C 60.043 55.970,60.056 38.187,60.430 36.376 C 61.113 33.069,63.381 30.970,66.961 30.331 C 68.394 30.075,73.310 30.242,74.220 30.577 M108.853 30.695 C 110.085 31.265,111.048 32.155,111.574 33.210 L 112.000 34.065 112.000 32.116 L 112.000 30.167 118.083 30.167 L 124.167 30.167 124.167 48.167 L 124.167 66.167 118.006 66.167 L 111.845 66.167 111.797 64.487 L 111.750 62.807 111.167 63.695 C 109.946 65.553,108.467 66.083,104.500 66.083 C 98.819 66.083,95.993 64.354,94.915 60.218 C 94.539 58.772,94.546 37.535,94.924 36.077 C 95.640 33.310,97.547 31.380,100.333 30.605 C 102.552 29.987,107.434 30.039,108.853 30.695 M161.436 30.725 C 162.559 31.240,163.611 32.222,164.141 33.250 L 164.485 33.917 164.493 32.042 L 164.500 30.167 170.583 30.167 L 176.667 30.167 176.667 48.167 L 176.667 66.167 170.500 66.167 L 164.333 66.167 164.326 64.375 L 164.318 62.583 163.916 63.354 C 162.025 66.984,152.929 67.289,149.478 63.838 C 147.215 61.575,147.166 61.245,147.168 48.194 C 147.170 34.472,147.320 33.735,150.541 31.654 C 152.961 30.089,158.939 29.580,161.436 30.725 M194.504 32.042 L 194.507 33.917 194.811 33.249 C 195.240 32.304,196.804 30.928,197.873 30.556 C 198.977 30.171,204.590 30.116,205.833 30.477 C 207.746 31.033,209.637 32.306,210.441 33.580 C 211.023 34.501,210.990 34.506,211.506 33.449 C 212.543 31.327,214.779 30.302,218.583 30.206 C 224.587 30.055,227.532 31.780,228.780 36.180 C 229.063 37.178,229.083 38.224,229.083 51.667 L 229.083 66.083 222.875 66.127 L 216.667 66.171 216.667 53.206 C 216.667 38.703,216.751 39.670,215.452 39.320 C 214.668 39.109,213.165 39.228,212.664 39.541 C 211.836 40.058,211.833 40.098,211.833 53.587 L 211.833 66.167 205.667 66.167 L 199.500 66.167 199.500 53.344 C 199.500 38.168,199.682 39.266,197.167 39.263 C 194.506 39.260,194.667 38.344,194.667 53.525 L 194.667 66.167 188.500 66.167 L 182.333 66.167 182.333 48.167 L 182.333 30.167 188.417 30.167 L 194.500 30.167 194.504 32.042 M256.156 30.343 C 260.079 30.980,262.486 32.936,263.439 36.262 C 263.729 37.277,264.009 50.112,263.761 51.097 L 263.660 51.500 254.497 51.500 L 245.333 51.500 245.333 54.011 C 245.333 57.520,245.466 57.667,248.636 57.667 C 251.570 57.667,252.000 57.326,252.000 55.003 L 252.000 53.829 257.875 53.873 L 263.750 53.917 263.731 56.417 C 263.688 62.217,261.713 64.802,256.513 65.865 C 254.086 66.360,241.906 66.247,239.976 65.710 C 236.521 64.750,234.570 62.818,233.910 59.704 C 233.555 58.028,233.562 38.270,233.919 36.586 C 234.651 33.131,237.221 30.940,241.250 30.334 C 242.555 30.137,254.936 30.145,256.156 30.343 M393.246 37.681 C 392.902 42.061,391.826 50.730,391.597 50.959 C 391.473 51.083,387.525 51.457,383.333 51.743 C 371.641 52.541,367.759 52.724,364.833 52.612 C 359.378 52.404,347.302 51.696,346.259 51.523 L 345.601 51.414 345.225 48.665 C 344.726 45.008,344.215 40.059,344.076 37.542 L 343.963 35.500 344.773 35.498 C 345.219 35.498,347.046 35.572,348.833 35.664 C 357.728 36.122,359.482 36.197,364.583 36.334 C 371.610 36.524,374.902 36.362,385.167 35.323 C 387.901 35.047,390.624 34.676,391.583 34.449 C 392.500 34.232,393.309 34.106,393.381 34.167 C 393.454 34.229,393.393 35.810,393.246 37.681 M364.913 38.227 C 361.228 39.411,361.408 43.606,365.273 46.594 C 366.085 47.223,367.275 48.201,367.917 48.768 L 369.084 49.800 369.750 49.140 C 370.117 48.777,371.269 47.834,372.311 47.046 C 374.973 45.030,375.823 43.785,375.830 41.894 C 375.842 38.439,372.239 36.870,369.865 39.297 C 369.378 39.795,368.963 40.175,368.942 40.143 C 367.844 38.444,366.391 37.752,364.913 38.227 M39.129 38.776 C 38.166 38.942,38.000 39.444,38.000 42.189 L 38.000 44.667 41.345 44.667 L 44.690 44.667 44.637 42.088 C 44.566 38.679,44.650 38.775,41.710 38.730 C 40.540 38.713,39.379 38.733,39.129 38.776 M246.382 38.842 C 245.435 39.132,245.333 39.460,245.333 42.204 L 245.333 44.667 248.678 44.667 L 252.023 44.667 251.970 42.088 C 251.900 38.682,251.984 38.779,249.043 38.720 C 247.874 38.697,246.676 38.752,246.382 38.842 M74.083 39.239 C 73.992 39.275,73.712 39.349,73.461 39.405 C 72.529 39.610,72.500 39.843,72.500 47.067 C 72.500 55.127,72.411 54.833,74.849 54.833 C 77.380 54.833,77.333 54.980,77.333 47.067 C 77.333 40.227,77.301 39.929,76.506 39.503 C 76.166 39.322,74.371 39.125,74.083 39.239 M108.171 39.327 C 106.952 39.634,107.000 39.272,107.000 48.167 C 107.000 57.671,106.810 56.885,109.131 56.974 C 110.594 57.030,110.638 57.021,111.188 56.530 L 111.750 56.027 111.750 48.389 C 111.750 40.263,111.732 40.024,111.088 39.601 C 110.590 39.275,108.979 39.124,108.171 39.327 M161.083 39.239 C 160.992 39.275,160.712 39.349,160.461 39.405 C 159.514 39.613,159.500 39.744,159.500 48.151 C 159.500 57.476,159.369 57.000,161.941 57.000 C 163.151 57.000,163.222 56.978,163.767 56.433 L 164.333 55.867 164.333 48.258 C 164.333 40.133,164.315 39.936,163.506 39.503 C 163.166 39.322,161.371 39.125,161.083 39.239 M388.574 55.292 C 388.416 57.023,387.527 65.101,387.164 68.083 C 386.986 69.550,386.730 71.905,386.596 73.317 C 386.461 74.728,386.282 75.951,386.199 76.034 C 386.051 76.182,350.669 75.891,350.518 75.741 C 350.479 75.701,350.193 73.249,349.884 70.293 C 349.575 67.336,349.072 62.629,348.766 59.833 C 348.460 57.038,348.267 54.687,348.337 54.609 C 348.407 54.532,349.691 54.551,351.191 54.651 C 365.942 55.635,367.326 55.635,381.083 54.666 C 386.524 54.283,387.201 54.237,388.046 54.197 L 388.676 54.167 388.574 55.292 M41.583 54.500 C 41.527 54.592,41.372 54.667,41.240 54.667 C 41.108 54.667,41.000 54.592,41.000 54.500 C 41.000 54.408,41.154 54.333,41.343 54.333 C 41.532 54.333,41.640 54.408,41.583 54.500 M249.000 54.500 C 249.000 54.592,248.850 54.667,248.667 54.667 C 248.483 54.667,248.333 54.592,248.333 54.500 C 248.333 54.408,248.483 54.333,248.667 54.333 C 248.850 54.333,249.000 54.408,249.000 54.500 " stroke="none" fill="#5d4b3b" fill-rule="evenodd"></path><path id="path1" d="M344.221 15.208 C 344.271 15.415,344.470 17.233,344.664 19.250 C 345.146 24.285,346.023 32.403,346.092 32.477 C 346.123 32.510,349.846 32.758,354.366 33.028 C 365.048 33.665,373.741 33.634,379.667 32.937 C 381.637 32.705,384.600 32.399,386.250 32.258 C 387.900 32.116,389.643 31.913,390.122 31.807 C 391.130 31.585,391.007 31.932,391.415 28.167 C 391.558 26.837,391.936 23.513,392.255 20.779 C 392.573 18.045,392.833 15.588,392.833 15.320 L 392.833 14.833 368.482 14.833 L 344.131 14.833 344.221 15.208 M129.833 42.083 L 129.833 66.000 135.917 66.000 L 142.000 66.000 142.000 42.083 L 142.000 18.167 135.917 18.167 L 129.833 18.167 129.833 42.083 M269.417 25.445 C 268.476 25.954,268.087 26.361,267.880 27.055 C 267.558 28.129,267.583 58.072,267.907 59.910 C 268.625 63.983,271.643 67.032,276.205 68.294 C 277.905 68.765,284.558 68.708,285.875 68.212 C 286.402 68.014,286.833 67.914,286.833 67.991 C 286.833 68.562,288.097 68.667,295.009 68.667 C 303.098 68.667,303.228 68.641,304.020 66.917 C 304.188 66.550,304.328 66.368,304.330 66.512 C 304.335 66.921,305.504 68.185,306.110 68.438 C 306.543 68.619,308.108 68.667,313.668 68.667 C 321.303 68.667,321.351 68.661,322.237 67.681 L 322.558 67.326 322.987 67.738 C 323.941 68.652,324.080 68.667,331.567 68.667 C 338.987 68.667,339.050 68.660,339.978 67.781 C 341.055 66.762,341.000 67.690,341.000 50.615 C 341.000 35.817,340.984 34.993,340.680 33.818 C 339.412 28.915,336.061 26.038,330.773 25.309 C 328.605 25.011,324.114 25.203,322.981 25.643 L 322.046 26.007 321.315 25.589 L 320.583 25.171 313.620 25.169 C 308.025 25.167,306.551 25.212,306.120 25.399 C 305.380 25.720,304.537 26.545,304.403 27.080 L 304.291 27.525 304.002 26.887 C 303.235 25.194,303.092 25.167,294.880 25.167 C 287.355 25.167,287.731 25.127,286.425 26.065 L 285.987 26.380 285.202 25.815 L 284.417 25.250 277.167 25.212 C 270.749 25.179,269.859 25.206,269.417 25.445 M283.500 41.575 C 283.500 57.452,283.282 56.167,285.971 56.167 C 288.673 56.167,288.500 57.180,288.500 41.337 L 288.500 28.163 294.958 28.206 L 301.417 28.250 301.459 46.958 L 301.501 65.667 295.084 65.667 L 288.667 65.667 288.663 63.708 L 288.659 61.750 288.346 62.440 C 287.275 64.798,285.306 65.662,281.000 65.664 C 275.922 65.665,273.120 64.386,271.603 61.372 C 270.490 59.162,270.500 59.331,270.500 42.924 L 270.500 28.167 277.000 28.167 L 283.500 28.167 283.500 41.575 M320.002 30.042 L 320.003 31.917 320.489 31.070 C 321.818 28.752,323.788 28.042,328.408 28.215 C 333.926 28.422,336.546 30.137,337.711 34.305 C 338.062 35.561,338.070 35.846,338.127 50.625 L 338.186 65.667 331.676 65.667 L 325.167 65.667 325.167 52.344 C 325.167 43.923,325.106 38.861,325.001 38.586 C 324.475 37.202,320.714 37.401,320.315 38.835 C 320.252 39.063,320.192 45.194,320.183 52.458 L 320.167 65.667 313.667 65.667 L 307.167 65.667 307.167 46.917 L 307.167 28.167 313.583 28.167 L 320.000 28.167 320.002 30.042 M21.325 30.010 C 18.635 30.406,16.403 32.080,15.559 34.333 C 15.069 35.641,15.000 35.459,15.000 32.867 L 15.000 30.333 9.083 30.333 L 3.167 30.333 3.167 48.167 L 3.167 66.000 9.157 66.000 L 15.147 66.000 15.211 54.958 C 15.281 42.901,15.272 43.021,16.261 41.866 C 17.215 40.751,18.152 40.468,21.208 40.370 L 23.833 40.286 23.833 35.060 L 23.833 29.833 23.042 29.854 C 22.606 29.865,21.834 29.935,21.325 30.010 M33.500 30.582 C 28.638 31.602,27.080 33.388,26.961 38.083 C 26.905 40.270,26.823 41.074,26.600 41.608 C 26.238 42.473,26.282 58.476,26.650 59.833 C 27.446 62.768,29.560 64.790,32.684 65.604 C 34.289 66.022,46.324 66.139,48.833 65.760 C 54.010 64.981,56.167 62.247,56.167 56.465 L 56.167 54.000 50.500 54.000 L 44.833 54.000 44.833 55.175 C 44.833 57.439,44.509 57.667,41.283 57.667 C 39.103 57.667,38.837 57.634,38.439 57.321 L 38.000 56.976 38.000 54.155 L 38.000 51.333 47.083 51.333 L 56.167 51.333 56.167 44.368 C 56.167 38.694,56.120 37.224,55.915 36.437 C 55.095 33.289,53.500 31.785,49.836 30.704 C 48.562 30.329,35.186 30.229,33.500 30.582 M66.598 30.599 C 63.385 31.311,61.518 32.984,60.612 35.965 C 60.215 37.271,59.975 53.652,60.312 56.384 C 60.974 61.736,63.669 63.750,70.167 63.750 C 74.348 63.750,75.729 63.200,76.849 61.089 C 77.445 59.964,77.500 60.108,77.500 62.808 C 77.500 67.151,78.171 66.833,69.005 66.833 L 61.828 66.833 61.872 71.042 L 61.917 75.250 70.417 75.301 C 79.542 75.356,82.323 75.220,84.112 74.633 C 86.371 73.891,88.263 72.142,89.043 70.075 L 89.417 69.083 89.462 49.708 L 89.508 30.333 83.587 30.333 L 77.667 30.333 77.657 32.458 L 77.647 34.583 77.255 33.721 C 76.691 32.480,75.681 31.462,74.458 30.901 C 73.158 30.306,68.699 30.134,66.598 30.599 M101.750 30.443 C 98.181 30.964,95.962 32.871,95.037 36.213 C 94.595 37.809,94.601 58.545,95.044 60.148 C 96.203 64.343,98.750 65.894,104.500 65.909 C 108.615 65.920,110.640 65.076,111.504 62.990 C 111.865 62.119,112.000 62.463,112.000 64.250 L 112.000 66.000 118.000 66.000 L 124.000 66.000 124.000 48.167 L 124.000 30.333 118.088 30.333 L 112.177 30.333 112.130 32.456 L 112.083 34.579 111.535 33.463 C 110.257 30.865,106.596 29.735,101.750 30.443 M154.000 30.503 C 150.534 31.109,148.437 32.954,147.544 36.185 C 147.151 37.607,147.091 58.272,147.476 59.833 C 148.511 64.041,151.010 65.749,156.430 65.952 C 160.815 66.116,162.961 65.263,164.023 62.933 C 164.381 62.148,164.500 62.478,164.500 64.250 L 164.500 66.000 170.500 66.000 L 176.500 66.000 176.500 48.167 L 176.500 30.333 170.583 30.333 L 164.667 30.333 164.657 32.458 L 164.647 34.583 164.259 33.730 C 162.946 30.843,159.059 29.620,154.000 30.503 M182.500 48.167 L 182.500 66.000 188.495 66.000 L 194.490 66.000 194.537 53.208 C 194.587 39.331,194.546 39.910,195.528 39.402 C 196.348 38.978,198.698 39.124,199.204 39.630 L 199.583 40.009 199.628 53.005 L 199.673 66.000 205.753 66.000 L 211.833 66.000 211.833 53.076 L 211.833 40.152 212.231 39.753 C 212.980 39.005,215.671 38.930,216.378 39.638 L 216.750 40.009 216.795 53.005 L 216.839 66.000 222.841 66.000 L 228.842 66.000 228.796 51.042 L 228.750 36.083 228.138 34.802 C 226.551 31.479,224.361 30.418,219.083 30.417 C 215.667 30.417,214.826 30.599,213.284 31.673 C 212.524 32.202,211.368 33.629,211.245 34.190 C 211.106 34.821,210.965 34.791,210.542 34.042 C 209.153 31.578,206.776 30.503,202.432 30.372 C 197.847 30.234,196.113 30.967,194.839 33.583 L 194.351 34.583 194.342 32.458 L 194.333 30.333 188.417 30.333 L 182.500 30.333 182.500 48.167 M240.833 30.584 C 236.554 31.448,234.340 33.705,233.837 37.714 C 233.618 39.462,233.617 57.197,233.836 58.712 C 234.429 62.807,236.823 65.105,241.183 65.763 C 243.654 66.135,255.718 66.020,257.293 65.609 C 261.721 64.453,263.500 61.815,263.500 56.408 L 263.500 54.000 257.850 54.000 L 252.201 54.000 252.142 55.431 C 252.054 57.578,251.916 57.667,248.650 57.667 C 245.204 57.667,245.333 57.806,245.333 54.091 L 245.333 51.333 254.417 51.333 L 263.500 51.333 263.500 44.425 C 263.500 37.035,263.449 36.447,262.663 34.750 C 261.608 32.470,259.506 31.113,256.094 30.508 C 254.607 30.245,242.206 30.306,240.833 30.584 M393.153 34.235 C 392.930 34.452,388.732 35.172,386.750 35.332 C 385.467 35.435,382.767 35.700,380.750 35.919 C 373.582 36.701,367.352 36.815,358.333 36.330 C 356.729 36.243,353.279 36.059,350.667 35.920 C 348.054 35.780,345.526 35.629,345.049 35.583 L 344.181 35.499 344.267 37.208 C 344.439 40.579,345.527 51.120,345.719 51.267 C 346.001 51.482,363.398 52.500,366.750 52.497 C 370.940 52.493,386.141 51.482,390.693 50.905 L 391.469 50.806 391.652 49.778 C 392.188 46.765,392.832 41.362,392.996 38.500 C 393.099 36.712,393.225 35.006,393.277 34.708 C 393.363 34.207,393.326 34.065,393.153 34.235 M367.525 38.413 C 367.866 38.639,368.345 39.075,368.591 39.382 L 369.037 39.942 369.911 39.067 C 372.368 36.610,375.921 38.294,375.915 41.912 C 375.911 43.932,375.099 45.132,372.298 47.253 C 371.355 47.967,370.232 48.888,369.802 49.301 L 369.021 50.050 368.576 49.521 C 368.331 49.230,367.272 48.344,366.223 47.552 C 362.505 44.746,361.538 42.859,362.500 40.287 C 363.303 38.143,365.742 37.233,367.525 38.413 M44.351 39.132 L 44.842 39.682 44.796 42.216 L 44.750 44.750 41.375 44.795 L 38.000 44.840 38.000 42.116 C 38.000 38.442,37.938 38.503,41.639 38.553 L 43.861 38.583 44.351 39.132 M251.685 39.132 L 252.175 39.682 252.129 42.216 L 252.083 44.750 248.708 44.795 L 245.333 44.840 245.333 42.193 C 245.333 38.454,245.275 38.512,248.972 38.557 L 251.194 38.583 251.685 39.132 M76.615 39.492 C 77.442 39.997,77.498 40.467,77.499 46.968 C 77.500 54.962,77.528 54.877,74.903 54.974 C 73.354 55.031,73.335 55.027,72.836 54.529 L 72.333 54.026 72.336 47.221 C 72.338 39.949,72.355 39.793,73.170 39.381 C 73.845 39.039,75.986 39.108,76.615 39.492 M110.814 39.351 C 111.901 39.730,111.911 39.803,111.968 47.583 C 112.028 55.659,112.012 55.855,111.252 56.615 C 110.446 57.420,108.100 57.459,107.321 56.679 L 106.833 56.192 106.833 48.217 C 106.833 39.589,106.823 39.697,107.726 39.332 C 108.243 39.123,110.194 39.136,110.814 39.351 M163.598 39.482 C 164.481 40.020,164.522 40.449,164.467 48.500 C 164.405 57.463,164.501 57.167,161.662 57.167 C 160.387 57.167,160.279 57.138,159.821 56.679 L 159.333 56.192 159.333 48.217 C 159.333 39.589,159.323 39.697,160.226 39.332 C 160.928 39.049,163.042 39.143,163.598 39.482 M387.167 54.367 C 377.917 55.232,367.257 55.735,363.000 55.507 C 353.296 54.989,350.484 54.827,349.455 54.730 C 348.536 54.643,348.341 54.666,348.405 54.853 C 348.447 54.980,348.561 56.021,348.656 57.167 C 348.852 59.499,350.480 74.707,350.598 75.292 L 350.673 75.667 355.045 75.674 C 357.449 75.678,365.417 75.746,372.750 75.826 C 380.083 75.906,386.098 75.957,386.117 75.939 C 386.162 75.893,387.120 67.698,387.249 66.250 C 387.306 65.608,387.615 62.734,387.936 59.862 C 388.633 53.623,388.717 54.222,387.167 54.367 " stroke="none" fill="#fbfbfb" fill-rule="evenodd"></path><path id="path2" d="M142.081 42.000 C 142.081 55.246,142.101 60.665,142.125 54.042 C 142.149 47.419,142.149 36.581,142.125 29.958 C 142.101 23.335,142.081 28.754,142.081 42.000 M283.413 41.583 C 283.413 48.917,283.433 51.892,283.458 48.196 C 283.483 44.500,283.483 38.500,283.458 34.863 C 283.433 31.226,283.413 34.250,283.413 41.583 M307.247 46.917 C 307.247 57.183,307.267 61.359,307.292 56.196 C 307.316 51.032,307.316 42.632,307.292 37.529 C 307.267 32.425,307.247 36.650,307.247 46.917 M23.908 35.083 C 23.908 38.017,23.930 39.193,23.958 37.698 C 23.986 36.202,23.986 33.802,23.958 32.365 C 23.930 30.927,23.908 32.150,23.908 35.083 M35.708 30.282 C 35.869 30.323,36.131 30.323,36.292 30.282 C 36.452 30.240,36.321 30.205,36.000 30.205 C 35.679 30.205,35.548 30.240,35.708 30.282 M46.375 30.282 C 46.535 30.323,46.798 30.323,46.958 30.282 C 47.119 30.240,46.987 30.205,46.667 30.205 C 46.346 30.205,46.215 30.240,46.375 30.282 M68.542 30.282 C 68.702 30.323,68.965 30.323,69.125 30.282 C 69.285 30.240,69.154 30.205,68.833 30.205 C 68.512 30.205,68.381 30.240,68.542 30.282 M103.042 30.282 C 103.202 30.323,103.465 30.323,103.625 30.282 C 103.785 30.240,103.654 30.205,103.333 30.205 C 103.013 30.205,102.881 30.240,103.042 30.282 M111.968 32.183 C 111.940 33.292,111.973 34.234,112.042 34.276 C 112.110 34.318,112.167 33.411,112.167 32.260 C 112.167 29.590,112.036 29.540,111.968 32.183 M155.542 30.282 C 155.702 30.323,155.965 30.323,156.125 30.282 C 156.285 30.240,156.154 30.205,155.833 30.205 C 155.512 30.205,155.381 30.240,155.542 30.282 M202.708 30.282 C 202.869 30.323,203.131 30.323,203.292 30.282 C 203.452 30.240,203.321 30.205,203.000 30.205 C 202.679 30.205,202.548 30.240,202.708 30.282 M220.042 30.282 C 220.202 30.323,220.465 30.323,220.625 30.282 C 220.785 30.240,220.654 30.205,220.333 30.205 C 220.012 30.205,219.881 30.240,220.042 30.282 M243.042 30.282 C 243.202 30.323,243.465 30.323,243.625 30.282 C 243.785 30.240,243.654 30.205,243.333 30.205 C 243.012 30.205,242.881 30.240,243.042 30.282 M253.794 30.285 C 254.001 30.324,254.301 30.323,254.460 30.281 C 254.620 30.239,254.450 30.207,254.083 30.209 C 253.717 30.211,253.586 30.245,253.794 30.285 M15.000 32.833 C 15.000 34.239,15.045 35.344,15.100 35.289 C 15.214 35.175,15.191 30.469,15.076 30.354 C 15.034 30.312,15.000 31.428,15.000 32.833 M194.333 32.333 C 194.333 33.464,194.380 34.342,194.437 34.285 C 194.552 34.170,194.524 30.468,194.407 30.351 C 194.366 30.311,194.333 31.203,194.333 32.333 M347.292 32.787 C 347.590 32.824,348.077 32.824,348.375 32.787 C 348.673 32.750,348.429 32.720,347.833 32.720 C 347.238 32.720,346.994 32.750,347.292 32.787 M381.875 32.782 C 382.035 32.823,382.298 32.823,382.458 32.782 C 382.619 32.740,382.488 32.705,382.167 32.705 C 381.846 32.705,381.715 32.740,381.875 32.782 M350.288 32.954 C 350.584 32.990,351.109 32.991,351.455 32.955 C 351.800 32.919,351.558 32.889,350.917 32.888 C 350.275 32.887,349.992 32.917,350.288 32.954 M353.458 33.121 C 353.756 33.158,354.244 33.158,354.542 33.121 C 354.840 33.084,354.596 33.053,354.000 33.053 C 353.404 33.053,353.160 33.084,353.458 33.121 M368.542 33.615 C 368.702 33.657,368.965 33.657,369.125 33.615 C 369.285 33.573,369.154 33.539,368.833 33.539 C 368.512 33.539,368.381 33.573,368.542 33.615 M355.294 36.118 C 355.501 36.158,355.801 36.156,355.960 36.115 C 356.120 36.073,355.950 36.040,355.583 36.042 C 355.217 36.044,355.086 36.078,355.294 36.118 M358.711 36.286 C 358.964 36.325,359.339 36.324,359.544 36.284 C 359.749 36.244,359.542 36.213,359.083 36.214 C 358.625 36.216,358.457 36.248,358.711 36.286 M375.711 36.286 C 375.964 36.325,376.339 36.324,376.544 36.284 C 376.749 36.244,376.542 36.213,376.083 36.214 C 375.625 36.216,375.457 36.248,375.711 36.286 M362.368 36.457 C 362.982 36.489,364.032 36.489,364.701 36.457 C 365.370 36.426,364.867 36.399,363.583 36.399 C 362.300 36.399,361.753 36.425,362.368 36.457 M372.375 36.453 C 372.627 36.491,373.040 36.491,373.292 36.453 C 373.544 36.415,373.337 36.383,372.833 36.383 C 372.329 36.383,372.123 36.415,372.375 36.453 M344.214 39.083 C 344.216 39.542,344.248 39.709,344.286 39.456 C 344.325 39.203,344.324 38.828,344.284 38.623 C 344.244 38.418,344.213 38.625,344.214 39.083 M106.910 48.167 C 106.910 52.429,106.932 54.173,106.958 52.042 C 106.985 49.910,106.985 46.423,106.958 44.292 C 106.932 42.160,106.910 43.904,106.910 48.167 M347.375 51.615 C 347.535 51.657,347.798 51.657,347.958 51.615 C 348.119 51.573,347.988 51.539,347.667 51.539 C 347.346 51.539,347.215 51.573,347.375 51.615 M350.627 54.785 C 350.834 54.824,351.134 54.823,351.294 54.781 C 351.453 54.739,351.283 54.707,350.917 54.709 C 350.550 54.711,350.420 54.745,350.627 54.785 M380.792 54.784 C 380.998 54.824,381.335 54.824,381.542 54.784 C 381.748 54.745,381.579 54.712,381.167 54.712 C 380.754 54.712,380.585 54.745,380.792 54.784 M74.121 54.954 C 74.417 54.990,74.942 54.991,75.288 54.955 C 75.634 54.919,75.392 54.889,74.750 54.888 C 74.108 54.887,73.825 54.917,74.121 54.954 M353.455 54.954 C 353.750 54.990,354.275 54.991,354.621 54.955 C 354.967 54.919,354.725 54.889,354.083 54.888 C 353.442 54.887,353.159 54.917,353.455 54.954 M378.211 54.953 C 378.464 54.991,378.839 54.990,379.044 54.951 C 379.249 54.911,379.042 54.880,378.583 54.881 C 378.125 54.882,377.957 54.915,378.211 54.953 M356.875 55.119 C 357.127 55.158,357.540 55.158,357.792 55.119 C 358.044 55.081,357.837 55.050,357.333 55.050 C 356.829 55.050,356.623 55.081,356.875 55.119 M375.792 55.118 C 375.998 55.157,376.335 55.157,376.542 55.118 C 376.748 55.078,376.579 55.045,376.167 55.045 C 375.754 55.045,375.585 55.078,375.792 55.118 M108.958 57.118 C 109.165 57.157,109.502 57.157,109.708 57.118 C 109.915 57.078,109.746 57.045,109.333 57.045 C 108.921 57.045,108.752 57.078,108.958 57.118 M161.458 57.118 C 161.665 57.157,162.002 57.157,162.208 57.118 C 162.415 57.078,162.246 57.045,161.833 57.045 C 161.421 57.045,161.252 57.078,161.458 57.118 M288.732 63.500 C 288.732 64.737,288.758 65.244,288.790 64.625 C 288.822 64.006,288.822 62.994,288.790 62.375 C 288.758 61.756,288.732 62.262,288.732 63.500 M96.500 63.385 C 96.500 63.414,96.744 63.658,97.042 63.927 L 97.583 64.417 97.094 63.875 C 96.638 63.370,96.500 63.257,96.500 63.385 M66.458 75.458 C 68.956 75.484,73.044 75.484,75.542 75.458 C 78.040 75.432,75.996 75.411,71.000 75.411 C 66.004 75.411,63.960 75.432,66.458 75.458 M351.534 75.790 C 352.149 75.822,353.199 75.822,353.868 75.791 C 354.536 75.759,354.033 75.733,352.750 75.732 C 351.467 75.732,350.920 75.758,351.534 75.790 M366.218 75.958 C 367.484 75.986,369.509 75.986,370.718 75.958 C 371.927 75.929,370.892 75.906,368.417 75.906 C 365.942 75.906,364.952 75.930,366.218 75.958 " stroke="none" fill="#948d7d" fill-rule="evenodd"></path><path id="path3" d="M132.886 17.958 C 134.611 17.985,137.386 17.985,139.053 17.958 C 140.719 17.931,139.308 17.909,135.917 17.909 C 132.525 17.909,131.161 17.931,132.886 17.958 M288.579 41.083 C 288.579 48.233,288.600 51.134,288.625 47.529 C 288.650 43.925,288.650 38.075,288.625 34.529 C 288.600 30.984,288.579 33.933,288.579 41.083 M328.375 28.282 C 328.535 28.323,328.798 28.323,328.958 28.282 C 329.119 28.240,328.987 28.205,328.667 28.205 C 328.346 28.205,328.215 28.240,328.375 28.282 M34.708 30.282 C 34.869 30.323,35.131 30.323,35.292 30.282 C 35.452 30.240,35.321 30.205,35.000 30.205 C 34.679 30.205,34.548 30.240,34.708 30.282 M47.375 30.282 C 47.535 30.323,47.798 30.323,47.958 30.282 C 48.119 30.240,47.987 30.205,47.667 30.205 C 47.346 30.205,47.215 30.240,47.375 30.282 M164.468 32.100 C 164.440 33.163,164.473 34.067,164.542 34.110 C 164.610 34.152,164.667 33.282,164.667 32.177 C 164.667 29.615,164.536 29.564,164.468 32.100 M77.469 32.184 C 77.440 33.202,77.472 34.120,77.539 34.225 C 77.606 34.331,77.663 33.498,77.664 32.375 C 77.667 29.827,77.539 29.701,77.469 32.184 M355.958 33.287 C 356.256 33.324,356.744 33.324,357.042 33.287 C 357.340 33.250,357.096 33.220,356.500 33.220 C 355.904 33.220,355.660 33.250,355.958 33.287 M359.208 33.453 C 359.460 33.491,359.873 33.491,360.125 33.453 C 360.377 33.415,360.171 33.383,359.667 33.383 C 359.162 33.383,358.956 33.415,359.208 33.453 M374.875 33.453 C 375.127 33.491,375.540 33.491,375.792 33.453 C 376.044 33.415,375.837 33.383,375.333 33.383 C 374.829 33.383,374.623 33.415,374.875 33.453 M367.460 33.618 C 367.668 33.658,367.968 33.656,368.127 33.615 C 368.286 33.573,368.117 33.540,367.750 33.542 C 367.383 33.544,367.253 33.578,367.460 33.618 M345.958 35.618 C 346.165 35.657,346.502 35.657,346.708 35.618 C 346.915 35.578,346.746 35.545,346.333 35.545 C 345.921 35.545,345.752 35.578,345.958 35.618 M353.211 35.953 C 353.464 35.991,353.839 35.990,354.044 35.951 C 354.249 35.911,354.042 35.880,353.583 35.881 C 353.125 35.882,352.957 35.915,353.211 35.953 M356.544 36.120 C 356.797 36.158,357.172 36.157,357.377 36.117 C 357.582 36.078,357.375 36.046,356.917 36.048 C 356.458 36.049,356.291 36.081,356.544 36.120 M374.542 36.282 C 374.702 36.323,374.965 36.323,375.125 36.282 C 375.285 36.240,375.154 36.205,374.833 36.205 C 374.512 36.205,374.381 36.240,374.542 36.282 M344.042 36.917 C 344.044 37.283,344.078 37.414,344.118 37.206 C 344.158 36.999,344.156 36.699,344.115 36.540 C 344.073 36.380,344.040 36.550,344.042 36.917 M366.375 36.455 C 366.719 36.491,367.281 36.491,367.625 36.455 C 367.969 36.419,367.688 36.389,367.000 36.389 C 366.313 36.389,366.031 36.419,366.375 36.455 M322.208 37.619 C 322.460 37.658,322.873 37.658,323.125 37.619 C 323.377 37.581,323.171 37.550,322.667 37.550 C 322.162 37.550,321.956 37.581,322.208 37.619 M229.080 52.250 C 229.080 59.858,229.100 62.995,229.125 59.221 C 229.150 55.446,229.150 49.221,229.125 45.387 C 229.100 41.554,229.080 44.642,229.080 52.250 M263.742 44.833 C 263.742 48.362,263.764 49.806,263.791 48.042 C 263.818 46.277,263.818 43.390,263.791 41.625 C 263.764 39.860,263.742 41.304,263.742 44.833 M325.246 52.167 C 325.246 59.546,325.267 62.565,325.292 58.875 C 325.317 55.185,325.317 49.148,325.292 45.458 C 325.267 41.769,325.246 44.788,325.246 52.167 M21.417 40.500 L 18.917 40.597 21.365 40.632 C 22.857 40.653,23.854 40.602,23.917 40.500 C 23.973 40.408,23.996 40.349,23.968 40.368 C 23.940 40.387,22.792 40.447,21.417 40.500 M375.872 41.833 C 375.872 42.154,375.906 42.285,375.948 42.125 C 375.990 41.965,375.990 41.702,375.948 41.542 C 375.906 41.381,375.872 41.512,375.872 41.833 M42.542 51.458 C 45.085 51.484,49.248 51.484,51.792 51.458 C 54.335 51.432,52.254 51.411,47.167 51.411 C 42.079 51.411,39.998 51.432,42.542 51.458 M249.875 51.458 C 252.419 51.484,256.581 51.484,259.125 51.458 C 261.669 51.432,259.587 51.411,254.500 51.411 C 249.412 51.411,247.331 51.432,249.875 51.458 M385.208 51.615 C 385.369 51.657,385.631 51.657,385.792 51.615 C 385.952 51.573,385.821 51.539,385.500 51.539 C 385.179 51.539,385.048 51.573,385.208 51.615 M348.960 51.785 C 349.168 51.824,349.468 51.823,349.627 51.781 C 349.786 51.739,349.617 51.707,349.250 51.709 C 348.883 51.711,348.753 51.745,348.960 51.785 M382.627 51.785 C 382.834 51.824,383.134 51.823,383.294 51.781 C 383.453 51.739,383.283 51.707,382.917 51.709 C 382.550 51.711,382.420 51.745,382.627 51.785 M351.127 51.951 C 351.334 51.991,351.634 51.990,351.794 51.948 C 351.953 51.906,351.783 51.874,351.417 51.875 C 351.050 51.877,350.920 51.911,351.127 51.951 M380.294 51.951 C 380.501 51.991,380.801 51.990,380.960 51.948 C 381.120 51.906,380.950 51.874,380.583 51.875 C 380.217 51.877,380.086 51.911,380.294 51.951 M47.542 53.958 C 49.169 53.985,51.831 53.985,53.458 53.958 C 55.085 53.931,53.754 53.908,50.500 53.908 C 47.246 53.908,45.915 53.931,47.542 53.958 M257.786 53.957 L 263.656 54.004 263.711 55.919 L 263.767 57.834 263.758 55.875 L 263.750 53.917 257.833 53.913 L 251.917 53.910 257.786 53.957 M384.794 54.451 C 385.001 54.491,385.301 54.490,385.460 54.448 C 385.620 54.406,385.450 54.374,385.083 54.375 C 384.717 54.377,384.586 54.411,384.794 54.451 M348.958 54.618 C 349.165 54.657,349.502 54.657,349.708 54.618 C 349.915 54.578,349.746 54.545,349.333 54.545 C 348.921 54.545,348.752 54.578,348.958 54.618 M382.544 54.620 C 382.797 54.658,383.172 54.657,383.377 54.617 C 383.582 54.578,383.375 54.546,382.917 54.548 C 382.458 54.549,382.291 54.581,382.544 54.620 M351.708 54.782 C 351.869 54.823,352.131 54.823,352.292 54.782 C 352.452 54.740,352.321 54.705,352.000 54.705 C 351.679 54.705,351.548 54.740,351.708 54.782 M62.333 61.583 C 62.644 61.904,62.936 62.167,62.982 62.167 C 63.028 62.167,62.811 61.904,62.500 61.583 C 62.189 61.262,61.897 61.000,61.851 61.000 C 61.805 61.000,62.022 61.262,62.333 61.583 M360.534 75.957 C 361.149 75.989,362.199 75.989,362.868 75.957 C 363.536 75.926,363.033 75.899,361.750 75.899 C 360.467 75.899,359.920 75.925,360.534 75.957 M379.552 76.125 C 380.818 76.153,382.843 76.153,384.052 76.124 C 385.261 76.096,384.225 76.073,381.750 76.073 C 379.275 76.073,378.286 76.096,379.552 76.125 " stroke="none" fill="#847c6c" fill-rule="evenodd"></path><path id="path4" d="M344.372 17.167 C 344.372 17.487,344.406 17.619,344.448 17.458 C 344.490 17.298,344.490 17.035,344.448 16.875 C 344.406 16.715,344.372 16.846,344.372 17.167 M132.886 18.125 C 134.611 18.152,137.386 18.152,139.053 18.125 C 140.719 18.098,139.308 18.075,135.917 18.075 C 132.525 18.075,131.161 18.098,132.886 18.125 M344.542 18.917 C 344.544 19.283,344.578 19.414,344.618 19.206 C 344.658 18.999,344.656 18.699,344.615 18.540 C 344.573 18.380,344.540 18.550,344.542 18.917 M344.712 20.500 C 344.712 20.912,344.745 21.081,344.784 20.875 C 344.824 20.669,344.824 20.331,344.784 20.125 C 344.745 19.919,344.712 20.087,344.712 20.500 M391.372 28.500 C 391.372 28.821,391.406 28.952,391.448 28.792 C 391.490 28.631,391.490 28.369,391.448 28.208 C 391.406 28.048,391.372 28.179,391.372 28.500 M270.580 43.083 C 270.580 51.333,270.600 54.684,270.625 50.529 C 270.650 46.374,270.650 39.624,270.625 35.529 C 270.600 31.434,270.580 34.833,270.580 43.083 M319.833 30.167 C 319.833 31.297,319.880 32.176,319.937 32.119 C 320.052 32.004,320.024 28.302,319.907 28.185 C 319.866 28.144,319.833 29.036,319.833 30.167 M301.414 47.000 C 301.414 57.313,301.434 61.531,301.458 56.375 C 301.483 51.219,301.483 42.781,301.458 37.625 C 301.434 32.469,301.414 36.688,301.414 47.000 M391.209 30.083 C 391.211 30.450,391.245 30.580,391.285 30.373 C 391.324 30.166,391.323 29.866,391.281 29.706 C 391.239 29.547,391.207 29.717,391.209 30.083 M3.077 30.375 C 3.033 30.490,3.017 38.571,3.040 48.333 L 3.083 66.083 9.167 66.083 L 15.250 66.083 15.252 55.625 L 15.254 45.167 15.209 55.583 L 15.164 66.000 9.165 66.000 L 3.167 66.000 3.167 48.169 L 3.167 30.338 9.125 30.292 L 15.083 30.246 9.120 30.206 C 4.473 30.175,3.139 30.213,3.077 30.375 M38.875 30.291 C 40.227 30.319,42.440 30.319,43.792 30.291 C 45.144 30.263,44.038 30.240,41.333 30.240 C 38.629 30.240,37.523 30.263,38.875 30.291 M69.792 30.287 C 70.090 30.324,70.577 30.324,70.875 30.287 C 71.173 30.250,70.929 30.220,70.333 30.220 C 69.737 30.220,69.494 30.250,69.792 30.287 M83.541 30.292 L 89.499 30.338 89.542 49.210 L 89.585 68.083 89.626 49.125 L 89.667 30.167 83.625 30.206 L 77.583 30.246 83.541 30.292 M104.292 30.287 C 104.590 30.324,105.077 30.324,105.375 30.287 C 105.673 30.250,105.429 30.220,104.833 30.220 C 104.237 30.220,103.994 30.250,104.292 30.287 M118.125 30.291 L 124.000 30.338 124.000 48.169 L 124.000 66.000 118.000 66.000 L 112.000 66.000 112.000 64.250 C 112.000 63.288,111.944 62.500,111.875 62.500 C 111.806 62.499,111.787 63.306,111.833 64.291 L 111.917 66.083 118.000 66.083 L 124.083 66.083 124.083 48.167 L 124.083 30.250 118.167 30.247 L 112.250 30.244 118.125 30.291 M156.792 30.287 C 157.090 30.324,157.577 30.324,157.875 30.287 C 158.173 30.250,157.929 30.220,157.333 30.220 C 156.737 30.220,156.494 30.250,156.792 30.287 M170.625 30.291 L 176.500 30.338 176.500 48.169 L 176.500 66.000 170.500 66.000 L 164.500 66.000 164.500 64.250 C 164.500 63.288,164.444 62.500,164.375 62.500 C 164.306 62.499,164.287 63.306,164.333 64.291 L 164.417 66.083 170.500 66.083 L 176.583 66.083 176.583 48.167 L 176.583 30.250 170.667 30.247 L 164.750 30.244 170.625 30.291 M182.410 30.375 C 182.367 30.490,182.350 38.571,182.374 48.333 L 182.417 66.083 188.500 66.083 L 194.583 66.083 194.585 53.542 L 194.587 41.000 194.542 53.500 L 194.498 66.000 188.499 66.000 L 182.500 66.000 182.500 48.169 L 182.500 30.338 188.458 30.292 L 194.417 30.246 188.453 30.206 C 183.806 30.175,182.472 30.213,182.410 30.375 M201.128 30.287 C 201.428 30.325,201.878 30.324,202.128 30.286 C 202.378 30.248,202.133 30.217,201.583 30.218 C 201.033 30.219,200.828 30.250,201.128 30.287 M218.292 30.287 C 218.590 30.324,219.077 30.324,219.375 30.287 C 219.673 30.250,219.429 30.220,218.833 30.220 C 218.237 30.220,217.994 30.250,218.292 30.287 M246.208 30.291 C 247.560 30.319,249.773 30.319,251.125 30.291 C 252.477 30.263,251.371 30.240,248.667 30.240 C 245.963 30.240,244.856 30.263,246.208 30.291 M75.500 31.385 C 75.500 31.414,75.744 31.658,76.042 31.927 L 76.583 32.417 76.094 31.875 C 75.638 31.370,75.500 31.257,75.500 31.385 M53.917 32.833 C 54.275 33.200,54.605 33.500,54.651 33.500 C 54.697 33.500,54.441 33.200,54.083 32.833 C 53.725 32.467,53.395 32.167,53.349 32.167 C 53.303 32.167,53.559 32.467,53.917 32.833 M386.625 32.284 C 386.831 32.324,387.169 32.324,387.375 32.284 C 387.581 32.245,387.412 32.212,387.000 32.212 C 386.587 32.212,386.419 32.245,386.625 32.284 M384.711 32.453 C 384.964 32.491,385.339 32.490,385.544 32.451 C 385.749 32.411,385.542 32.380,385.083 32.381 C 384.625 32.382,384.457 32.415,384.711 32.453 M382.958 32.618 C 383.165 32.657,383.502 32.657,383.708 32.618 C 383.915 32.578,383.746 32.545,383.333 32.545 C 382.921 32.545,382.752 32.578,382.958 32.618 M349.042 32.782 C 349.202 32.823,349.465 32.823,349.625 32.782 C 349.785 32.740,349.654 32.705,349.333 32.705 C 349.012 32.705,348.881 32.740,349.042 32.782 M369.711 33.620 C 369.964 33.658,370.339 33.657,370.544 33.617 C 370.749 33.578,370.542 33.546,370.083 33.548 C 369.625 33.549,369.457 33.581,369.711 33.620 M393.218 35.750 C 393.219 36.300,393.250 36.505,393.287 36.205 C 393.325 35.906,393.324 35.456,393.286 35.205 C 393.248 34.955,393.217 35.200,393.218 35.750 M26.899 37.917 C 26.899 39.200,26.926 39.703,26.957 39.034 C 26.989 38.366,26.989 37.316,26.957 36.701 C 26.925 36.086,26.899 36.633,26.899 37.917 M348.127 35.785 C 348.334 35.824,348.634 35.823,348.794 35.781 C 348.953 35.739,348.783 35.707,348.417 35.709 C 348.050 35.711,347.920 35.745,348.127 35.785 M350.958 35.951 C 351.165 35.991,351.502 35.991,351.708 35.951 C 351.915 35.911,351.746 35.879,351.333 35.879 C 350.921 35.879,350.752 35.911,350.958 35.951 M353.877 36.120 C 354.131 36.158,354.506 36.157,354.711 36.117 C 354.916 36.078,354.708 36.046,354.250 36.048 C 353.792 36.049,353.624 36.081,353.877 36.120 M357.292 36.284 C 357.498 36.324,357.835 36.324,358.042 36.284 C 358.248 36.245,358.079 36.212,357.667 36.212 C 357.254 36.212,357.085 36.245,357.292 36.284 M360.211 36.453 C 360.464 36.491,360.839 36.490,361.044 36.451 C 361.249 36.411,361.042 36.380,360.583 36.381 C 360.125 36.382,359.957 36.415,360.211 36.453 M374.042 36.453 C 374.294 36.491,374.706 36.491,374.958 36.453 C 375.210 36.415,375.004 36.383,374.500 36.383 C 373.996 36.383,373.790 36.415,374.042 36.453 M344.218 37.417 C 344.219 37.967,344.250 38.172,344.287 37.872 C 344.325 37.572,344.324 37.122,344.286 36.872 C 344.248 36.622,344.217 36.867,344.218 37.417 M367.384 36.624 C 368.282 36.654,369.707 36.654,370.550 36.624 C 371.393 36.594,370.658 36.569,368.917 36.569 C 367.175 36.570,366.485 36.594,367.384 36.624 M393.050 37.833 C 393.050 38.337,393.081 38.544,393.119 38.292 C 393.158 38.040,393.158 37.627,393.119 37.375 C 393.081 37.123,393.050 37.329,393.050 37.833 M338.080 51.500 C 338.080 59.337,338.100 62.544,338.125 58.625 C 338.150 54.706,338.150 48.294,338.125 44.375 C 338.100 40.456,338.080 43.663,338.080 51.500 M228.874 51.708 L 228.833 66.000 222.834 66.000 L 216.835 66.000 216.791 53.125 L 216.747 40.250 216.748 53.167 L 216.750 66.083 222.796 66.127 C 227.544 66.161,228.859 66.126,228.922 65.960 C 228.967 65.845,228.983 59.375,228.959 51.583 L 228.915 37.417 228.874 51.708 M365.542 37.948 C 365.702 37.990,365.965 37.990,366.125 37.948 C 366.285 37.906,366.154 37.872,365.833 37.872 C 365.512 37.872,365.381 37.906,365.542 37.948 M372.042 37.948 C 372.202 37.990,372.465 37.990,372.625 37.948 C 372.785 37.906,372.654 37.872,372.333 37.872 C 372.012 37.872,371.881 37.906,372.042 37.948 M263.576 44.667 C 263.576 48.379,263.598 49.898,263.625 48.042 C 263.652 46.185,263.652 43.148,263.625 41.292 C 263.598 39.435,263.576 40.954,263.576 44.667 M56.243 44.833 C 56.243 48.454,56.265 49.935,56.291 48.125 C 56.318 46.315,56.318 43.352,56.291 41.542 C 56.265 39.731,56.243 41.212,56.243 44.833 M40.292 38.623 C 40.865 38.656,41.802 38.656,42.375 38.623 C 42.948 38.591,42.479 38.564,41.333 38.564 C 40.188 38.564,39.719 38.591,40.292 38.623 M247.625 38.623 C 248.198 38.656,249.135 38.656,249.708 38.623 C 250.281 38.591,249.813 38.564,248.667 38.564 C 247.521 38.564,247.052 38.591,247.625 38.623 M368.167 39.083 C 368.478 39.404,368.770 39.667,368.815 39.667 C 368.861 39.667,368.644 39.404,368.333 39.083 C 368.022 38.762,367.730 38.500,367.685 38.500 C 367.639 38.500,367.856 38.762,368.167 39.083 M369.824 39.125 L 369.250 39.750 369.875 39.176 C 370.457 38.641,370.577 38.500,370.449 38.500 C 370.422 38.500,370.140 38.781,369.824 39.125 M320.079 52.583 C 320.079 59.825,320.100 62.763,320.125 59.113 C 320.150 55.462,320.150 49.537,320.125 45.946 C 320.100 42.355,320.079 45.342,320.079 52.583 M44.703 42.122 L 44.667 44.660 41.292 44.709 L 37.917 44.757 41.297 44.795 C 43.939 44.825,44.695 44.786,44.760 44.617 C 44.806 44.499,44.820 43.317,44.791 41.992 L 44.740 39.583 44.703 42.122 M252.037 42.122 L 252.000 44.660 248.625 44.709 L 245.250 44.757 248.630 44.795 C 251.272 44.825,252.029 44.786,252.093 44.617 C 252.139 44.499,252.153 43.317,252.125 41.992 L 252.073 39.583 252.037 42.122 M392.872 40.167 C 392.872 40.487,392.906 40.619,392.948 40.458 C 392.990 40.298,392.990 40.035,392.948 39.875 C 392.906 39.715,392.872 39.846,392.872 40.167 M344.372 40.333 C 344.372 40.654,344.406 40.785,344.448 40.625 C 344.490 40.465,344.490 40.202,344.448 40.042 C 344.406 39.881,344.372 40.012,344.372 40.333 M159.410 48.167 C 159.410 52.612,159.432 54.431,159.458 52.208 C 159.484 49.985,159.484 46.348,159.458 44.125 C 159.432 41.902,159.410 43.721,159.410 48.167 M20.715 40.457 C 21.338 40.489,22.313 40.489,22.882 40.457 C 23.451 40.424,22.942 40.398,21.750 40.398 C 20.558 40.398,20.093 40.425,20.715 40.457 M72.371 47.116 L 72.333 53.981 72.708 54.374 C 72.915 54.590,72.971 54.624,72.833 54.449 C 72.624 54.183,72.569 53.016,72.496 47.191 L 72.409 40.250 72.371 47.116 M199.582 53.250 L 199.583 66.083 205.583 66.086 L 211.583 66.090 205.626 66.043 L 199.669 65.996 199.624 53.206 L 199.580 40.417 199.582 53.250 M77.409 47.000 C 77.409 50.438,77.431 51.844,77.458 50.125 C 77.485 48.406,77.485 45.594,77.458 43.875 C 77.431 42.156,77.409 43.563,77.409 47.000 M164.410 48.083 C 164.410 52.117,164.432 53.743,164.458 51.697 C 164.485 49.651,164.485 46.351,164.458 44.364 C 164.432 42.376,164.410 44.050,164.410 48.083 M111.910 48.167 C 111.910 52.154,111.932 53.785,111.958 51.792 C 111.985 49.798,111.985 46.535,111.958 44.542 C 111.932 42.548,111.910 44.179,111.910 48.167 M344.548 42.250 C 344.549 42.708,344.581 42.876,344.620 42.623 C 344.658 42.369,344.657 41.994,344.617 41.789 C 344.578 41.584,344.546 41.792,344.548 42.250 M344.709 43.917 C 344.711 44.283,344.745 44.414,344.785 44.206 C 344.824 43.999,344.823 43.699,344.781 43.540 C 344.739 43.380,344.707 43.550,344.709 43.917 M344.872 45.333 C 344.872 45.654,344.906 45.785,344.948 45.625 C 344.990 45.465,344.990 45.202,344.948 45.042 C 344.906 44.881,344.872 45.012,344.872 45.333 M374.075 45.708 L 373.417 46.417 374.125 45.758 C 374.784 45.145,374.910 45.000,374.784 45.000 C 374.757 45.000,374.438 45.319,374.075 45.708 M391.513 50.447 C 391.504 50.712,391.375 50.830,391.042 50.881 L 390.583 50.950 391.047 50.975 C 391.520 51.001,391.773 50.697,391.612 50.297 C 391.565 50.180,391.520 50.247,391.513 50.447 M389.294 51.118 C 389.501 51.158,389.801 51.156,389.960 51.115 C 390.120 51.073,389.950 51.040,389.583 51.042 C 389.217 51.044,389.086 51.078,389.294 51.118 M387.458 51.284 C 387.665 51.324,388.002 51.324,388.208 51.284 C 388.415 51.245,388.246 51.212,387.833 51.212 C 387.421 51.212,387.252 51.245,387.458 51.284 M346.375 51.448 C 346.535 51.490,346.798 51.490,346.958 51.448 C 347.119 51.406,346.988 51.372,346.667 51.372 C 346.346 51.372,346.215 51.406,346.375 51.448 M385.542 51.448 C 385.702 51.490,385.965 51.490,386.125 51.448 C 386.285 51.406,386.154 51.372,385.833 51.372 C 385.512 51.372,385.381 51.406,385.542 51.448 M383.627 51.618 C 383.834 51.658,384.134 51.656,384.294 51.615 C 384.453 51.573,384.283 51.540,383.917 51.542 C 383.550 51.544,383.420 51.578,383.627 51.618 M350.542 51.782 C 350.702 51.823,350.965 51.823,351.125 51.782 C 351.285 51.740,351.154 51.705,350.833 51.705 C 350.512 51.705,350.381 51.740,350.542 51.782 M381.042 51.782 C 381.202 51.823,381.465 51.823,381.625 51.782 C 381.785 51.740,381.654 51.705,381.333 51.705 C 381.012 51.705,380.881 51.740,381.042 51.782 M353.044 51.953 C 353.297 51.991,353.672 51.990,353.877 51.951 C 354.082 51.911,353.875 51.880,353.417 51.881 C 352.958 51.882,352.791 51.915,353.044 51.953 M378.708 51.948 C 378.869 51.990,379.131 51.990,379.292 51.948 C 379.452 51.906,379.321 51.872,379.000 51.872 C 378.679 51.872,378.548 51.906,378.708 51.948 M356.125 52.118 C 356.331 52.157,356.669 52.157,356.875 52.118 C 357.081 52.078,356.912 52.045,356.500 52.045 C 356.087 52.045,355.919 52.078,356.125 52.118 M376.542 52.115 C 376.702 52.157,376.965 52.157,377.125 52.115 C 377.285 52.073,377.154 52.039,376.833 52.039 C 376.512 52.039,376.381 52.073,376.542 52.115 M365.708 52.623 C 366.144 52.657,366.856 52.657,367.292 52.623 C 367.727 52.588,367.371 52.560,366.500 52.560 C 365.629 52.560,365.273 52.588,365.708 52.623 M44.724 55.250 C 44.724 55.983,44.754 56.263,44.789 55.871 C 44.824 55.479,44.824 54.879,44.788 54.537 C 44.752 54.196,44.723 54.517,44.724 55.250 M56.231 56.000 C 56.231 57.146,56.258 57.615,56.290 57.042 C 56.323 56.469,56.323 55.531,56.290 54.958 C 56.258 54.385,56.231 54.854,56.231 56.000 M252.057 55.250 C 252.058 55.983,252.087 56.263,252.122 55.871 C 252.157 55.479,252.157 54.879,252.121 54.537 C 252.085 54.196,252.057 54.517,252.057 55.250 M263.566 56.250 C 263.566 57.533,263.592 58.036,263.624 57.368 C 263.656 56.699,263.655 55.649,263.623 55.034 C 263.591 54.420,263.565 54.967,263.566 56.250 M348.372 55.333 C 348.372 55.654,348.406 55.785,348.448 55.625 C 348.490 55.465,348.490 55.202,348.448 55.042 C 348.406 54.881,348.372 55.012,348.372 55.333 M352.208 54.948 C 352.369 54.990,352.631 54.990,352.792 54.948 C 352.952 54.906,352.821 54.872,352.500 54.872 C 352.179 54.872,352.048 54.906,352.208 54.948 M355.458 55.118 C 355.665 55.157,356.002 55.157,356.208 55.118 C 356.415 55.078,356.246 55.045,355.833 55.045 C 355.421 55.045,355.252 55.078,355.458 55.118 M377.042 55.115 C 377.202 55.157,377.465 55.157,377.625 55.115 C 377.785 55.073,377.654 55.039,377.333 55.039 C 377.012 55.039,376.881 55.073,377.042 55.115 M358.875 55.288 C 359.219 55.324,359.781 55.324,360.125 55.288 C 360.469 55.252,360.188 55.223,359.500 55.223 C 358.813 55.223,358.531 55.252,358.875 55.288 M373.292 55.289 C 373.681 55.324,374.319 55.324,374.708 55.289 C 375.098 55.254,374.779 55.225,374.000 55.225 C 373.221 55.225,372.902 55.254,373.292 55.289 M361.796 55.456 C 362.188 55.491,362.788 55.490,363.129 55.454 C 363.471 55.419,363.150 55.390,362.417 55.390 C 361.683 55.391,361.404 55.420,361.796 55.456 M370.125 55.455 C 370.515 55.490,371.152 55.490,371.542 55.455 C 371.931 55.420,371.613 55.392,370.833 55.392 C 370.054 55.392,369.735 55.420,370.125 55.455 M365.632 55.624 C 366.208 55.656,367.108 55.656,367.632 55.623 C 368.155 55.590,367.683 55.563,366.583 55.564 C 365.483 55.564,365.055 55.591,365.632 55.624 M285.627 56.285 C 285.834 56.324,286.134 56.323,286.294 56.281 C 286.453 56.239,286.283 56.207,285.917 56.209 C 285.550 56.211,285.420 56.245,285.627 56.285 M348.539 56.833 C 348.539 57.154,348.573 57.285,348.615 57.125 C 348.657 56.965,348.657 56.702,348.615 56.542 C 348.573 56.381,348.539 56.512,348.539 56.833 M77.294 62.125 C 77.372 65.327,77.438 65.639,77.469 62.958 C 77.486 61.515,77.444 60.333,77.375 60.333 C 77.306 60.333,77.270 61.139,77.294 62.125 M53.909 63.542 L 53.250 64.250 53.958 63.591 C 54.617 62.978,54.743 62.833,54.617 62.833 C 54.590 62.833,54.271 63.152,53.909 63.542 M261.242 63.542 L 260.583 64.250 261.292 63.591 C 261.681 63.229,262.000 62.910,262.000 62.883 C 262.000 62.757,261.855 62.883,261.242 63.542 M387.539 63.333 C 387.539 63.654,387.573 63.785,387.615 63.625 C 387.657 63.465,387.657 63.202,387.615 63.042 C 387.573 62.881,387.539 63.012,387.539 63.333 M69.464 63.956 C 69.948 63.990,70.698 63.990,71.131 63.956 C 71.563 63.921,71.167 63.894,70.250 63.894 C 69.333 63.895,68.980 63.923,69.464 63.956 M110.406 64.375 L 109.917 64.917 110.458 64.427 C 110.756 64.158,111.000 63.914,111.000 63.885 C 111.000 63.757,110.862 63.870,110.406 64.375 M387.372 64.833 C 387.372 65.154,387.406 65.285,387.448 65.125 C 387.490 64.965,387.490 64.702,387.448 64.542 C 387.406 64.381,387.372 64.512,387.372 64.833 M34.208 65.948 C 34.369 65.990,34.631 65.990,34.792 65.948 C 34.952 65.906,34.821 65.872,34.500 65.872 C 34.179 65.872,34.048 65.906,34.208 65.948 M47.875 65.948 C 48.035 65.990,48.298 65.990,48.458 65.948 C 48.619 65.906,48.487 65.872,48.167 65.872 C 47.846 65.872,47.715 65.906,47.875 65.948 M101.708 65.948 C 101.869 65.990,102.131 65.990,102.292 65.948 C 102.452 65.906,102.321 65.872,102.000 65.872 C 101.679 65.872,101.548 65.906,101.708 65.948 M154.208 65.948 C 154.369 65.990,154.631 65.990,154.792 65.948 C 154.952 65.906,154.821 65.872,154.500 65.872 C 154.179 65.872,154.048 65.906,154.208 65.948 M241.542 65.948 C 241.702 65.990,241.965 65.990,242.125 65.948 C 242.285 65.906,242.154 65.872,241.833 65.872 C 241.512 65.872,241.381 65.906,241.542 65.948 M255.208 65.948 C 255.369 65.990,255.631 65.990,255.792 65.948 C 255.952 65.906,255.821 65.872,255.500 65.872 C 255.179 65.872,255.048 65.906,255.208 65.948 M38.458 66.125 C 40.040 66.152,42.627 66.152,44.208 66.125 C 45.790 66.097,44.496 66.075,41.333 66.075 C 38.171 66.075,36.877 66.097,38.458 66.125 M103.964 66.123 C 104.448 66.157,105.198 66.156,105.631 66.122 C 106.063 66.088,105.667 66.060,104.750 66.061 C 103.833 66.061,103.480 66.089,103.964 66.123 M132.958 66.125 C 134.631 66.152,137.369 66.152,139.042 66.125 C 140.715 66.098,139.346 66.075,136.000 66.075 C 132.654 66.075,131.285 66.098,132.958 66.125 M156.458 66.123 C 156.940 66.157,157.727 66.157,158.208 66.123 C 158.690 66.089,158.296 66.062,157.333 66.062 C 156.371 66.062,155.977 66.089,156.458 66.123 M245.792 66.125 C 247.373 66.152,249.960 66.152,251.542 66.125 C 253.123 66.097,251.829 66.075,248.667 66.075 C 245.504 66.075,244.210 66.097,245.792 66.125 M65.470 66.792 C 67.515 66.818,70.815 66.818,72.803 66.791 C 74.791 66.765,73.117 66.743,69.083 66.743 C 65.050 66.743,63.424 66.765,65.470 66.792 M350.205 72.667 C 350.205 72.987,350.240 73.119,350.282 72.958 C 350.323 72.798,350.323 72.535,350.282 72.375 C 350.240 72.215,350.205 72.346,350.205 72.667 M350.372 74.167 C 350.372 74.487,350.406 74.619,350.448 74.458 C 350.490 74.298,350.490 74.035,350.448 73.875 C 350.406 73.715,350.372 73.846,350.372 74.167 M80.458 75.284 C 80.665 75.324,81.002 75.324,81.208 75.284 C 81.415 75.245,81.246 75.212,80.833 75.212 C 80.421 75.212,80.252 75.245,80.458 75.284 M357.218 75.791 C 358.484 75.820,360.509 75.820,361.718 75.791 C 362.927 75.763,361.892 75.740,359.417 75.740 C 356.942 75.740,355.952 75.763,357.218 75.791 M375.052 75.958 C 376.318 75.986,378.343 75.986,379.552 75.958 C 380.761 75.929,379.725 75.906,377.250 75.906 C 374.775 75.906,373.786 75.930,375.052 75.958 " stroke="none" fill="#cccbc3" fill-rule="evenodd"></path></g></svg>